<svg version="1.2" xmlns="http://www.w3.org/2000/svg" viewBox="0 0 400 400" width="400" height="400">
	<style>
		.s0 { fill: #ffffff } 
	</style>
	<path id="Shape 3" fill-rule="evenodd" class="s0" d="m151.89 108.91c5.17-5.49 12.05-5.49 17.22 0 10.47 10.78 23.28 18.14 36.08 18.14 12.52 0 25.78-7.5 36.02-18.14 5.54-5.91 13.08-5.42 18.25 1.18 6.7 8.27 15.13 14.6 23.55 17.52 8.01 2.78 12.99 14.74 11.13 26.7-1.86 11.96-9.87 19.39-17.88 16.61-11.4-3.96-20.9-11.47-27.09-17.38-13.5 10.85-28.62 18.01-43.98 18.01-14.85 0-28.21-6.88-37.43-13.14-2.7-1.88-5.17-3.69-7.26-5.35-2.09 1.66-4.52 3.54-7.26 5.35-9.22 6.26-22.58 13.14-37.43 13.14-15.36 0-30.48-7.16-43.98-17.94-6.24 5.84-15.69 13.42-27.09 17.38-8.01 2.78-16.02-4.65-17.88-16.61-1.86-11.96 3.12-23.92 11.13-26.7 8.38-2.99 16.85-9.32 23.5-17.59 5.17-6.6 12.71-7.02 18.25-1.18 10.33 10.64 23.55 18.14 36.07 18.14 12.8 0 25.61-7.36 36.08-18.14zm17.22 200.23c10.47 10.77 23.28 18.14 36.08 18.14 12.52 0 25.78-7.51 36.02-18.14 5.54-5.91 13.08-5.43 18.25 1.18 6.7 8.27 15.13 14.6 23.55 17.52 8.01 2.78 12.99 14.74 11.13 26.69-1.86 11.96-9.87 19.4-17.88 16.62-11.4-3.96-20.9-11.47-27.09-17.38-13.5 10.84-28.62 18.01-43.98 18.01-14.85 0-28.21-6.89-37.43-13.14-2.7-1.88-5.17-3.69-7.26-5.36-2.09 1.67-4.52 3.55-7.26 5.36-9.22 6.25-22.58 13.14-37.43 13.14-15.36 0-30.48-7.17-43.98-17.94-6.24 5.84-15.69 13.42-27.09 17.38-8.01 2.78-16.02-4.66-17.88-16.62-1.86-11.95 3.12-23.91 11.13-26.69 8.42-2.92 16.85-9.25 23.55-17.52 5.17-6.54 12.71-7.03 18.25-1.19 10.28 10.57 23.5 18.08 36.02 18.08 12.8 0 25.61-7.37 36.08-18.14 5.17-5.5 12.05-5.5 17.22 0zm0-100.12c10.47 10.78 23.28 18.15 36.08 18.15 12.52 0 25.78-7.51 36.02-18.15 5.54-5.91 13.08-5.42 18.25 1.18 6.7 8.28 15.13 14.6 23.55 17.52 8.01 2.78 12.99 14.74 11.13 26.7-1.86 11.96-9.87 19.4-17.88 16.62-11.4-3.97-20.9-11.47-27.09-17.38-13.5 10.84-28.62 18-43.98 18-14.85 0-28.21-6.88-37.43-13.14-2.7-1.87-5.17-3.68-7.26-5.35-2.09 1.67-4.52 3.54-7.26 5.35-9.22 6.26-22.58 13.14-37.43 13.14-15.36 0-30.48-7.16-43.98-17.93-6.24 5.84-15.69 13.41-27.09 17.38-8.01 2.78-16.02-4.66-17.88-16.62-1.86-11.96 3.12-23.92 11.13-26.7 8.42-2.92 16.85-9.24 23.55-17.52 5.17-6.6 12.71-7.02 18.25-1.18 10.28 10.57 23.5 18.08 36.02 18.08 12.8 0 25.61-7.37 36.08-18.15 5.17-5.49 12.05-5.49 17.22 0z"/>
	<path id="Shape 4" fill-rule="evenodd" class="s0" d="m342.5 36.75c0-4.97 1.98-9.74 5.49-13.26 3.52-3.51 8.29-5.49 13.26-5.49 4.97 0 9.74 1.98 13.26 5.49 3.51 3.52 5.49 8.29 5.49 13.26 0 4.97-1.98 9.74-5.49 13.26-3.52 3.51-8.29 5.49-13.26 5.49-4.97 0-9.74-1.98-13.26-5.49-3.51-3.52-5.49-8.29-5.49-13.26zm25 0c0-1.66-0.66-3.25-1.83-4.42-1.17-1.17-2.76-1.83-4.42-1.83-1.66 0-3.25 0.66-4.42 1.83-1.17 1.17-1.83 2.76-1.83 4.42 0 1.66 0.66 3.25 1.83 4.42 1.17 1.17 2.76 1.83 4.42 1.83 1.66 0 3.25-0.66 4.42-1.83 1.17-1.17 1.83-2.76 1.83-4.42zm-81.25 3.13c0-12.08 9.79-21.88 21.88-21.88 12.08 0 21.87 9.79 21.87 21.88v32.12q0 0.03 0.04 0.12 0.06 0.19 0.33 0.55c3.69 4.76 5.88 10.74 5.88 17.21 0 15.52-12.6 28.12-28.13 28.12-15.52 0-28.12-12.6-28.12-28.13 0-6.48 2.19-12.46 5.88-17.2q0.27-0.36 0.33-0.55 0.04-0.09 0.04-0.12zm21.88-9.37c-5.18 0-9.38 4.2-9.38 9.37v32.13c0 3.38-1.39 6.23-2.99 8.3-2.05 2.66-3.26 5.96-3.26 9.57 0 8.64 6.99 15.63 15.63 15.63 8.63 0 15.62-6.99 15.62-15.63 0-3.61-1.21-6.91-3.26-9.55-1.6-2.07-2.99-4.92-2.99-8.3v-32.15c0-5.17-4.2-9.37-9.37-9.37zm9.37 59.37c0 5.18-4.2 9.38-9.37 9.38-5.18 0-9.38-4.2-9.38-9.38 0-4.08 2.62-7.55 6.25-8.84v-9.91c0-1.71 1.41-3.12 3.13-3.12 1.71 0 3.12 1.41 3.12 3.12v9.91c3.63 1.29 6.25 4.76 6.25 8.84z"/>
</svg>